# xmcd
#
# Track frame offsets: 
#        150
#        14550
#        27600
#        41695
#        63012
#        76662
#        92638
#        109737
#        121737
#        133286
#        150985
#        169287
#        183988
#
# Disc length: 2640 seconds
#
# Revision: 0
# Processed by: cddbd v1.5.2PL0 Copyright (c) Steve Scherf et al.
# Submitted via: ExactAudioCopyFreeDBPlugin 1.0
#
DISCID=a00a4e0d
DTITLE=Blues Karloff - Light And Shade
DYEAR=2015
DGENRE=Blues
TTITLE0=I Ain't Superstitious
TTITLE1=Close Together
TTITLE2=Love Doctor
TTITLE3=Don't Lie To Me
TTITLE4=Take These Chains
TTITLE5=I'm A Bluesman
TTITLE6=All Over Now
TTITLE7=Hey Gypsy
TTITLE8=Looking Tired
TTITLE9=Blackout Blues
TTITLE10=Pills And Booze
TTITLE11=Don't Tell Me What To Do
TTITLE12=Evil
EXTD=
EXTT0=
EXTT1=
EXTT2=
EXTT3=
EXTT4=
EXTT5=
EXTT6=
EXTT7=
EXTT8=
EXTT9=
EXTT10=
EXTT11=
EXTT12=
PLAYORDER=
